# xmcd
#
# Track frame offsets:
#	150
#	14084
#	26678
#	38935
#	52303
#	63831
#	73012
#	84909
#	95035
#	106228
#	117378
#	129751
#	140227
#	153319
#	164183
#	177710
#	189668
#	202707
#	215309
#	225366
#
# Disc length: 3202 seconds
#
# Revision: 0
# Processed by: cddbd v1.5.2PL0 Copyright (c) Steve Scherf et al.
# Submitted via: audiograbber 1.83.01
#
DISCID=230c8014
DTITLE=Billie Jo Spears - Stand By Your Man
DYEAR=1993
DGENRE=Country
TTITLE0=Mr. Walker Its All Over
TTITLE1=Keep Me From Crying Today
TTITLE2=Look Out Your Window
TTITLE3=Tips And Tables
TTITLE4=Stand By Your Man
TTITLE5=Hold Me Tight
TTITLE6=That Man
TTITLE7=My Arms Stay Open Late
TTITLE8=You Couldn't Even Light His Candle
TTITLE9=Thanks For Hangin' Round World
TTITLE10=What Have They Done To My Song
TTITLE11=It Makes No Difference Now
TTITLE12=He's On The Run Again
TTITLE13=I'm So Lonesome I Could Cry
TTITLE14=Fever
TTITLE15=Ease The Want In Me
TTITLE16=Dallas
TTITLE17=Sunshine
TTITLE18=Souvenirs and Californian Memories
TTITLE19=I'll Never Be Free
EXTD=
EXTT0=
EXTT1=
EXTT2=
EXTT3=
EXTT4=
EXTT5=
EXTT6=
EXTT7=
EXTT8=
EXTT9=
EXTT10=
EXTT11=
EXTT12=
EXTT13=
EXTT14=
EXTT15=
EXTT16=
EXTT17=
EXTT18=
EXTT19=
PLAYORDER=
